<?xml version="1.0" standalone="no"?>
<!DOCTYPE svg PUBLIC "-//W3C//DTD SVG 20010904//EN"
 "http://www.w3.org/TR/2001/REC-SVG-20010904/DTD/svg10.dtd">
<svg version="1.0" xmlns="http://www.w3.org/2000/svg"
 width="232.000000pt" height="178.000000pt" viewBox="0 0 232.000000 178.000000"
 preserveAspectRatio="xMidYMid meet">

<g transform="translate(0.000000,178.000000) scale(0.100000,-0.100000)"
fill="#000000" stroke="none">
<path d="M1035 1229 c-55 -4 -156 -8 -225 -9 -69 -2 -150 -6 -180 -10 l-55 -7
70 -2 c39 0 114 -4 168 -8 l97 -6 -29 -18 c-20 -12 -61 -19 -140 -24 -116 -8
-153 -25 -53 -25 66 0 80 -7 54 -26 -12 -9 -54 -13 -140 -14 -80 0 -121 -4
-117 -10 3 -6 49 -10 103 -10 152 0 100 -20 -95 -36 -92 -7 -181 -14 -198 -15
-27 -1 -26 -2 10 -10 22 -4 59 -8 83 -8 45 -1 48 -6 30 -46 -11 -24 -15 -25
-90 -25 -50 0 -77 -4 -73 -10 3 -5 38 -10 77 -10 60 0 69 -2 64 -16 -3 -9 -6
-20 -6 -25 0 -5 -62 -10 -137 -10 l-138 -2 115 -8 c63 -4 125 -10 137 -12 17
-3 25 5 43 44 13 26 35 61 51 78 27 30 29 31 124 31 l96 0 98 54 c169 92 311
134 481 142 129 7 207 -6 320 -54 l64 -27 -69 -11 -70 -11 75 -2 c122 -4 128
-17 12 -26 -57 -4 -101 -10 -98 -13 3 -3 66 -8 140 -13 86 -5 144 -13 163 -22
35 -19 190 -37 307 -37 125 0 135 -6 170 -104 11 -33 16 -11 5 27 -5 20 -20
49 -33 63 -21 25 -31 28 -130 35 -151 12 -287 37 -316 58 -268 192 -376 219
-765 190z"/>
<path d="M690 800 c-8 -5 -40 -10 -70 -11 -37 -2 -44 -4 -22 -6 43 -6 37 -27
-9 -30 -19 -2 -59 -6 -89 -10 l-55 -7 80 -6 c72 -6 88 -3 155 22 98 37 143 36
203 -2 26 -16 50 -30 54 -30 13 0 -21 31 -66 59 -40 26 -58 31 -107 31 -32 0
-66 -5 -74 -10z"/>
<path d="M1825 800 c-11 -5 -45 -10 -75 -11 -45 -2 -48 -3 -17 -6 20 -2 37 -8
37 -12 0 -24 -31 -31 -139 -32 l-116 -2 120 -8 c95 -6 125 -5 150 6 108 51
161 56 231 20 60 -30 62 -31 38 -4 -43 49 -167 75 -229 49z"/>
</g>
</svg>
