<?xml version="1.0" standalone="no"?>
<!DOCTYPE svg PUBLIC "-//W3C//DTD SVG 20010904//EN"
 "http://www.w3.org/TR/2001/REC-SVG-20010904/DTD/svg10.dtd">
<svg version="1.0" xmlns="http://www.w3.org/2000/svg"
 width="64.000000pt" height="64.000000pt" viewBox="0 0 64.000000 64.000000"
 preserveAspectRatio="xMidYMid meet">

<g transform="translate(0.000000,64.000000) scale(0.100000,-0.100000)"
fill="#000000" stroke="none">
<path d="M245 440 c-49 -4 -64 -7 -37 -8 52 -2 47 -22 -6 -23 -33 -1 -34 -2
-12 -9 21 -7 18 -8 -20 -10 -42 -2 -43 -3 -15 -10 28 -7 27 -8 -14 -9 -37 -1
-42 -3 -31 -16 10 -12 10 -16 -1 -19 -40 -13 -42 -14 -18 -15 15 -1 29 6 33
14 3 8 16 15 30 15 14 0 48 14 76 32 36 22 67 33 105 36 59 5 127 -14 103 -29
-7 -4 -10 -11 -7 -14 10 -9 151 -36 173 -32 12 1 -4 7 -34 11 -37 5 -67 17
-93 37 -45 36 -98 60 -129 57 -13 -1 -59 -5 -103 -8z"/>
<path d="M73 303 c9 -2 23 -2 30 0 6 3 -1 5 -18 5 -16 0 -22 -2 -12 -5z"/>
<path d="M160 274 l-35 -14 35 6 c19 3 47 6 62 7 14 1 24 5 21 10 -6 11 -43 7
-83 -9z"/>
<path d="M495 280 c-3 -5 -21 -11 -38 -11 -20 -1 -25 -3 -13 -6 11 -3 36 1 57
7 32 11 41 11 56 -1 16 -13 17 -12 4 4 -15 18 -56 23 -66 7z"/>
</g>
</svg>
